HIERARCHY
ROOT Hips
{
	OFFSET 0.000000 0.000000 0.000000
	CHANNELS 6 Xposition Yposition Zposition Xrotation Yrotation Zrotation
	JOINT LeftUpLeg_virtual
	{
		OFFSET 0.000000 0.000000 0.000000
		CHANNELS 3 Xrotation Yrotation Zrotation
		JOINT LeftUpLeg
		{
			OFFSET 11.394100 -6.187798 -0.413800
			CHANNELS 3 Xrotation Yrotation Zrotation
			JOINT LeftLeg
			{
				OFFSET 0.430247 -32.302673 3.732800
				CHANNELS 3 Xrotation Yrotation Zrotation
				JOINT LeftFoot
				{
					OFFSET -0.430247 -48.264931 -6.423300
					CHANNELS 3 Xrotation Yrotation Zrotation
					JOINT LeftToeBase
					{
						OFFSET 4.230900 -16.068199 23.438400
						CHANNELS 3 Xrotation Yrotation Zrotation
						JOINT LeftToe_End
						{
							OFFSET 4.510700 0.695400 19.974600
							CHANNELS 3 Xrotation Yrotation Zrotation
							End Site
							{
								OFFSET 0 0 0
							}
						}
					}
				}
			}
		}
	}
	JOINT RightUpLeg_virtual
	{
		OFFSET 0.000000 0.000000 0.000000
		CHANNELS 3 Xrotation Yrotation Zrotation
		JOINT RightUpLeg
		{
			OFFSET -11.333700 -6.187798 -0.413800
			CHANNELS 3 Xrotation Yrotation Zrotation
			JOINT RightLeg
			{
				OFFSET -0.430392 -32.302628 3.733000
				CHANNELS 3 Xrotation Yrotation Zrotation
				JOINT RightFoot
				{
					OFFSET 0.430392 -48.264973 -6.423500
					CHANNELS 3 Xrotation Yrotation Zrotation
					JOINT RightToeBase
					{
						OFFSET -4.230900 -16.068199 23.438400
						CHANNELS 3 Xrotation Yrotation Zrotation
						JOINT RightToe_End
						{
							OFFSET -4.510700 0.695400 19.974600
							CHANNELS 3 Xrotation Yrotation Zrotation
							End Site
							{
								OFFSET 0 0 0
							}
						}
					}
				}
			}
		}
	}
	JOINT Spine_virtual
	{
		OFFSET 0.000000 0.000000 0.000000
		CHANNELS 3 Xrotation Yrotation Zrotation
		JOINT Spine
		{
			OFFSET -0.002400 12.777504 0.315300
			CHANNELS 3 Xrotation Yrotation Zrotation
			JOINT Spine1
			{
				OFFSET -0.002067 5.816869 0.032633
				CHANNELS 3 Xrotation Yrotation Zrotation
				JOINT Spine1_split
				{
					OFFSET -0.002067 5.816869 0.032633
					CHANNELS 3 Xrotation Yrotation Zrotation
					JOINT Spine2
					{
						OFFSET -0.002067 5.816869 0.032633
						CHANNELS 3 Xrotation Yrotation Zrotation
						JOINT Neck_virtual
						{
							OFFSET 0.000000 0.000000 0.000000
							CHANNELS 3 Xrotation Yrotation Zrotation
							JOINT Neck
							{
								OFFSET -0.003700 21.199493 -0.826900
								CHANNELS 3 Xrotation Yrotation Zrotation
								JOINT Head
								{
									OFFSET 0.000000 20.442200 4.834800
									CHANNELS 3 Xrotation Yrotation Zrotation
									JOINT HeadTop_End
									{
										OFFSET 0.000000 34.668396 4.968400
										CHANNELS 3 Xrotation Yrotation Zrotation
										End Site
										{
											OFFSET 0 0 0
										}
									}
								}
							}
						}
						JOINT LeftShoulder_virtual
						{
							OFFSET 0.000000 0.000000 0.000000
							CHANNELS 3 Xrotation Yrotation Zrotation
							JOINT LeftShoulder
							{
								OFFSET 3.288150 8.794197 -1.372250
								CHANNELS 3 Xrotation Yrotation Zrotation
								JOINT LeftShoulder_split
								{
									OFFSET 3.288150 8.794197 -1.372250
									CHANNELS 3 Xrotation Yrotation Zrotation
									JOINT LeftArm
									{
										OFFSET 11.953299 -2.279007 -0.146200
										CHANNELS 3 Xrotation Yrotation Zrotation
										JOINT LeftForeArm
										{
											OFFSET 18.448900 0.000000 0.000000
											CHANNELS 3 Xrotation Yrotation Zrotation
											JOINT LeftHand
											{
												OFFSET 29.527798 0.000000 0.000000
												CHANNELS 3 Xrotation Yrotation Zrotation
												End Site
												{
													OFFSET 0 0 0
												}
											}
										}
									}
								}
							}
						}
						JOINT RightShoulder_virtual
						{
							OFFSET 0.000000 0.000000 0.000000
							CHANNELS 3 Xrotation Yrotation Zrotation
							JOINT RightShoulder
							{
								OFFSET -3.249400 8.794197 -1.372250
								CHANNELS 3 Xrotation Yrotation Zrotation
								JOINT RightShoulder_split
								{
									OFFSET -3.249400 8.794197 -1.372250
									CHANNELS 3 Xrotation Yrotation Zrotation
									JOINT RightArm
									{
										OFFSET -11.953299 -2.279007 -0.146200
										CHANNELS 3 Xrotation Yrotation Zrotation
										JOINT RightForeArm
										{
											OFFSET -18.448900 0.000000 0.000000
											CHANNELS 3 Xrotation Yrotation Zrotation
											JOINT RightHand
											{
												OFFSET -29.527802 0.000000 0.000000
												CHANNELS 3 Xrotation Yrotation Zrotation
												End Site
												{
													OFFSET 0 0 0
												}
											}
										}
									}
								}
							}
						}
					}
				}
			}
		}
	}
}
MOTION
Frames: 4
Frame Time: 0.03333333
1.397638 57.633781 20.092573 0.000000 0.000000 0.000000 8.468461 5.721908 1.460895 -107.728817 -10.503108 11.600405 88.734286 1.426812 -2.404200 15.390563 -5.587647 -8.306744 -4.118425 0.467984 0.276376 0.000000 0.000000 0.000000 8.263019 5.444284 1.417770 -114.930978 13.902385 -11.144586 91.720418 -1.849059 0.084392 16.651774 0.287991 10.043501 2.093402 0.643187 -2.002770 0.000000 0.000000 0.000000 8.861321 3.752714 1.065797 6.434179 -2.016383 -2.261293 15.233637 -1.221204 -0.749621 1.081447 0.524936 0.143638 0.000000 0.000000 0.000000 16.659356 -1.185338 -0.575304 -2.293033 -2.846103 -1.204923 -52.890690 2.121673 -7.938437 0.000000 0.000000 0.000000 16.012214 -1.419731 -0.404953 0.652004 -15.932231 4.449239 -3.994815 -4.865344 -1.693668 -61.238998 -27.747382 -15.783097 176.848747 -69.462395 178.561417 0.000000 0.000000 0.000000 14.885750 -1.815358 -0.540223 1.748975 14.410710 -3.297559 3.880418 0.498133 4.333113 -85.537300 29.602880 30.346390 -178.399897 53.797182 175.081804 0.000000 0.000000 0.000000 
1.388170 57.761436 20.003046 0.000000 0.000000 0.000000 8.881925 5.426627 1.270384 -107.978263 -10.748866 11.506073 88.283439 1.325920 -2.285693 15.414842 -5.820648 -8.281146 -3.948419 0.492066 0.259541 0.000000 0.000000 0.000000 8.644748 5.203599 1.228981 -115.018473 13.730338 -11.002245 91.231021 -1.868633 -0.019940 16.474797 0.322957 10.173717 2.279148 0.614439 -1.947961 0.000000 0.000000 0.000000 9.274529 3.752215 0.847913 6.326845 -2.012944 -2.256998 15.596295 -1.241581 -0.654719 0.786774 0.453616 0.127224 0.000000 0.000000 0.000000 16.948730 -1.121963 -0.563558 -0.197474 -2.964344 -1.226851 -51.752900 2.563052 -7.777432 0.000000 0.000000 0.000000 16.411000 -1.390424 -0.353173 0.635422 -14.887179 5.278366 -3.533178 -4.675416 -1.575482 -60.301302 -27.023807 -15.931054 177.368033 -68.709593 179.264093 0.000000 0.000000 0.000000 15.423547 -1.780767 -0.487567 1.467808 13.472569 -2.766972 3.254118 1.182679 4.155073 -83.988432 30.212621 29.523824 -178.336116 54.004417 175.258064 0.000000 0.000000 0.000000 
1.339157 57.858456 19.965815 0.000000 0.000000 0.000000 9.348803 5.133119 1.143751 -108.199124 -10.923768 11.348571 87.813181 1.309821 -2.198577 15.425347 -5.987188 -8.218606 -3.841614 0.503762 0.301192 0.000000 0.000000 0.000000 9.100461 5.034447 1.092431 -115.131895 13.608268 -10.897475 90.703758 -1.924901 -0.076714 16.316243 0.297763 10.225276 2.373097 0.586145 -1.794437 0.000000 0.000000 0.000000 9.727258 3.865121 0.619838 6.290243 -2.016751 -2.227714 16.122354 -1.201966 -0.626811 0.598114 0.564218 0.239873 0.000000 0.000000 0.000000 17.316225 -1.018823 -0.608051 2.629880 -3.037754 -1.438986 -50.306584 2.713379 -7.823595 0.000000 0.000000 0.000000 17.004366 -1.320991 -0.377863 0.657122 -14.253351 6.155982 -2.695625 -4.928030 -1.487906 -57.449035 -25.572886 -15.926389 178.061092 -67.280136 -179.855888 0.000000 0.000000 0.000000 16.199865 -1.669471 -0.503388 1.181269 12.740139 -2.023443 2.886554 2.037714 4.044158 -81.025202 31.272260 28.263096 -178.287677 54.821035 175.447206 0.000000 0.000000 0.000000 
1.265161 57.879272 19.967443 0.000000 0.000000 0.000000 9.838116 4.870630 1.110061 -108.405812 -10.976778 11.185392 87.460408 1.386166 -2.185883 15.423950 -6.025294 -8.109129 -3.809907 0.507031 0.388468 0.000000 0.000000 0.000000 9.600424 4.970373 1.039550 -115.319329 13.552302 -10.878301 90.260861 -1.998431 -0.078739 16.222290 0.250204 10.234065 2.318292 0.560605 -1.598742 0.000000 0.000000 0.000000 10.166175 4.062220 0.440796 6.278533 -2.043257 -2.203920 16.632556 -1.136260 -0.662136 0.520079 0.553905 0.333782 0.000000 0.000000 0.000000 17.641535 -0.906876 -0.693651 5.667177 -3.039652 -1.840963 -48.924208 2.528017 -8.102494 0.000000 0.000000 0.000000 17.574847 -1.233954 -0.476074 0.696126 -14.081188 6.840433 -1.662000 -5.685861 -1.514003 -53.165868 -24.146331 -15.645894 178.627246 -65.433021 -179.135931 0.000000 0.000000 0.000000 16.972171 -1.518572 -0.565024 0.960830 12.269028 -1.283904 2.633129 2.537508 3.960285 -77.143715 32.515334 26.581522 -178.346102 55.876756 175.739797 0.000000 0.000000 0.000000 
